<?xml version="1.0" encoding="utf-8"?>
<!-- Generator: Adobe Illustrator 15.0.0, SVG Export Plug-In . SVG Version: 6.00 Build 0)  -->
<!DOCTYPE svg PUBLIC "-//W3C//DTD SVG 1.1//EN" "http://www.w3.org/Graphics/SVG/1.1/DTD/svg11.dtd">
<svg version="1.1" id="Layer_1" xmlns="http://www.w3.org/2000/svg" xmlns:xlink="http://www.w3.org/1999/xlink" x="0px" y="0px"
	 width="18px" height="22px" viewBox="86 14 18 22" enable-background="new 86 14 18 22" xml:space="preserve">
<g id="_Group_">
	<g id="_Group_2">
		<g id="_Group_3">
			<path id="_Path_" fill="#FFFFFF" d="M101.035,25.699c0.021-1.715,0.925-3.297,2.394-4.195c-0.931-1.321-2.434-2.129-4.056-2.18
				c-1.706-0.178-3.36,1.015-4.229,1.015c-0.886,0-2.224-0.998-3.666-0.968c-1.897,0.061-3.621,1.107-4.544,2.756
				c-1.966,3.382-0.5,8.354,1.382,11.09c0.942,1.338,2.042,2.833,3.482,2.781c1.41-0.059,1.936-0.895,3.638-0.895
				c1.684,0,2.178,0.895,3.647,0.859c1.512-0.023,2.465-1.344,3.373-2.695c0.677-0.955,1.198-2.009,1.543-3.125
				C102.205,29.389,101.037,27.639,101.035,25.699z"/>
			<path id="_Path_2" fill="#FFFFFF" d="M98.259,17.526c0.824-0.984,1.23-2.25,1.132-3.526c-1.26,0.132-2.424,0.73-3.258,1.677
				c-0.826,0.934-1.244,2.156-1.162,3.396C96.247,19.086,97.458,18.516,98.259,17.526z"/>
		</g>
	</g>
</g>
</svg>
