<?xml version="1.0" encoding="utf-8"?>
<!-- Generator: Adobe Illustrator 15.0.0, SVG Export Plug-In . SVG Version: 6.00 Build 0)  -->
<!DOCTYPE svg PUBLIC "-//W3C//DTD SVG 1.1//EN" "http://www.w3.org/Graphics/SVG/1.1/DTD/svg11.dtd">
<svg version="1.1" id="Calque_1" xmlns="http://www.w3.org/2000/svg" xmlns:xlink="http://www.w3.org/1999/xlink" x="0px" y="0px"
	 width="20px" height="20px" viewBox="0 0 20 20" enable-background="new 0 0 20 20" xml:space="preserve">
<path fill="#FFFFFF" d="M15.548,0.004L12.67,0C9.436,0,7.347,1.932,7.347,4.922v2.27H4.453C4.203,7.191,4,7.374,4,7.6v3.288
	c0,0.226,0.203,0.407,0.453,0.407h2.894v8.297C7.347,19.817,7.549,20,7.799,20h3.775c0.251,0,0.453-0.183,0.453-0.408v-8.297h3.384
	c0.25,0,0.452-0.182,0.452-0.407L15.865,7.6c0-0.108-0.048-0.212-0.133-0.289c-0.084-0.077-0.2-0.12-0.32-0.12h-3.385V5.268
	c0-0.925,0.244-1.394,1.582-1.394l1.938,0C15.797,3.873,16,3.69,16,3.465V0.412C16,0.187,15.798,0.004,15.548,0.004z"/>
</svg>
