<?xml version="1.0" encoding="utf-8"?>
<!-- Generator: Adobe Illustrator 15.0.0, SVG Export Plug-In . SVG Version: 6.00 Build 0)  -->
<!DOCTYPE svg PUBLIC "-//W3C//DTD SVG 1.1//EN" "http://www.w3.org/Graphics/SVG/1.1/DTD/svg11.dtd">
<svg version="1.1" id="Calque_1" xmlns="http://www.w3.org/2000/svg" xmlns:xlink="http://www.w3.org/1999/xlink" x="0px" y="0px"
	 width="20px" height="20px" viewBox="0 0 20 20" enable-background="new 0 0 20 20" xml:space="preserve">
<path fill="#FFFFFF" d="M20,3.893c-0.736,0.321-1.525,0.539-2.355,0.636c0.848-0.5,1.496-1.292,1.803-2.234
	c-0.795,0.463-1.672,0.799-2.606,0.981C16.092,2.49,15.027,2,13.846,2C11.58,2,9.743,3.81,9.743,6.04
	c0,0.316,0.036,0.625,0.106,0.921C6.44,6.792,3.417,5.183,1.394,2.738C1.04,3.334,0.838,4.028,0.838,4.77
	c0,1.402,0.725,2.639,1.825,3.363C1.991,8.11,1.358,7.928,0.805,7.625v0.05c0,1.958,1.415,3.59,3.291,3.962
	c-0.344,0.091-0.707,0.142-1.081,0.142c-0.265,0-0.521-0.025-0.772-0.075c0.522,1.606,2.037,2.774,3.832,2.807
	c-1.403,1.083-3.173,1.727-5.095,1.727c-0.331,0-0.657-0.02-0.979-0.056C1.816,17.33,3.972,18,6.289,18
	c7.547,0,11.673-6.156,11.673-11.496L17.947,5.98C18.754,5.415,19.451,4.703,20,3.893z"/>
</svg>
